<svg width="274" height="247" viewBox="0 0 274 247" fill="none" xmlns="http://www.w3.org/2000/svg">
<g clip-path="url(#clip0_225_737)">
<path d="M112.005 34.9102H0V97.974H112.005V34.9102Z" fill="#0D94FF"/>
<path d="M120.274 92.3434H7.51709V28.5288H120.274V92.3434ZM8.2688 91.5927H119.523V29.2796H8.2688V91.5927Z" fill="#3F3D56"/>
<path d="M265.731 6.38135H153.726V69.4452H265.731V6.38135Z" fill="#F2F2F2"/>
<path d="M274 63.8146H161.243V0H274V63.8146ZM161.995 63.0638H273.248V0.75076H161.995V63.0638Z" fill="#3F3D56"/>
<path d="M192.482 247H49.2803C49.1806 247 49.085 246.96 49.0145 246.89C48.944 246.819 48.9044 246.724 48.9044 246.624C48.9044 246.525 48.944 246.429 49.0145 246.359C49.085 246.289 49.1806 246.249 49.2803 246.249H192.482C192.582 246.249 192.677 246.289 192.748 246.359C192.818 246.429 192.858 246.525 192.858 246.624C192.858 246.724 192.818 246.819 192.748 246.89C192.677 246.96 192.582 247 192.482 247Z" fill="#CCCCCC"/>
<path d="M138.929 158.31C138.961 157.631 139.142 156.968 139.458 156.367C139.775 155.765 140.22 155.241 140.761 154.83C141.303 154.418 141.928 154.131 142.593 153.987C143.258 153.844 143.947 153.848 144.61 153.998L150.763 145.337L156.945 147.788L148.083 159.898C147.756 160.994 147.037 161.932 146.063 162.534C145.089 163.136 143.928 163.361 142.8 163.165C141.671 162.969 140.654 162.367 139.941 161.472C139.227 160.577 138.867 159.452 138.929 158.31L138.929 158.31Z" fill="#A0616A"/>
<path d="M145.679 150.862L156.62 132.484L152.162 120.612L158.233 104.443L158.457 104.539C158.604 104.602 162.053 106.139 162.565 111.645L169.541 133.544L150.922 157.668L145.679 150.862Z" fill="#3F3D56"/>
<path d="M86.2588 83.2999C86.9338 83.3845 87.582 83.6158 88.1578 83.9776C88.7336 84.3394 89.223 84.8228 89.5914 85.394C89.9599 85.9651 90.1985 86.6099 90.2904 87.2831C90.3824 87.9563 90.3254 88.6414 90.1235 89.2902L98.2939 96.0872L95.3691 102.053L83.966 92.2929C82.8971 91.882 82.0163 91.0937 81.4905 90.0775C80.9647 89.0613 80.8303 87.8878 81.1129 86.7793C81.3956 85.6708 82.0755 84.7044 83.0239 84.0631C83.9723 83.4218 85.1233 83.1503 86.2588 83.2999V83.2999Z" fill="#A0616A"/>
<path d="M93.1724 90.5972L110.672 102.912L122.868 99.3916L138.54 106.687L138.427 106.902C138.353 107.044 136.551 110.36 131.016 110.443L108.616 115.697L85.9722 95.2913L93.1724 90.5972Z" fill="#3F3D56"/>
<path d="M125.194 240.354H119.11L116.216 216.918L125.195 216.918L125.194 240.354Z" fill="#A0616A"/>
<path d="M112.972 238.618H126.498V245.996H107.377V244.206C107.377 242.724 107.967 241.303 109.016 240.255C110.065 239.207 111.488 238.618 112.972 238.618V238.618Z" fill="#2F2E41"/>
<path d="M149.51 240.354H143.426L140.532 216.918L149.511 216.918L149.51 240.354Z" fill="#A0616A"/>
<path d="M137.288 238.618H150.813V245.996H131.693V244.206C131.693 242.724 132.282 241.303 133.332 240.255C134.381 239.207 135.804 238.618 137.288 238.618V238.618Z" fill="#2F2E41"/>
<path d="M151.673 154.81L151.177 189.503L150.681 235.099L139.764 234.107L134.305 171.165L127.358 234.107H116.087L114.952 170.669L118.922 156.792L151.673 154.81Z" fill="#2F2E41"/>
<path d="M117.833 157.003L116.17 156.932L123.896 114.428L120.732 101.582C120.568 100.913 120.655 100.208 120.976 99.599C121.298 98.9903 121.832 98.5205 122.477 98.2787L128.168 96.1474L130.179 90.625L146.043 92.3322L146.433 96.6481C148.152 97.1987 162.308 101.907 161.331 107.272C160.367 112.568 154.675 129.228 154.386 130.072L153.389 153.965L153.266 154.026C153.119 154.099 142.184 159.469 130.306 159.468C126.123 159.468 121.82 158.802 117.833 157.003Z" fill="#3F3D56"/>
<path d="M147.511 81.9563C150.537 76.4283 148.503 69.4972 142.968 66.4753C137.433 63.4534 130.493 65.485 127.467 71.013C124.441 76.5411 126.475 83.4722 132.01 86.4941C137.546 89.516 144.485 87.4844 147.511 81.9563Z" fill="#A0616A"/>
<path d="M146.741 87.5274C144.564 89.8431 140.522 88.6 140.238 85.4363C140.216 85.1907 140.217 84.9435 140.243 84.6982C140.389 83.2969 141.2 82.0246 141.006 80.545C140.962 80.1767 140.824 79.8258 140.607 79.5254C138.872 77.2056 134.8 80.563 133.163 78.4629C132.159 77.1752 133.339 75.1478 132.569 73.7086C131.552 71.809 128.541 72.7461 126.653 71.7058C124.551 70.5484 124.677 67.3288 126.06 65.3705C127.747 62.9822 130.704 61.7079 133.625 61.5242C136.545 61.3405 139.446 62.129 142.172 63.1903C145.27 64.396 148.342 66.0624 150.249 68.783C152.567 72.0915 152.79 76.5395 151.631 80.4081C150.925 82.7615 148.518 85.6363 146.741 87.5274Z" fill="#2F2E41"/>
</g>
<defs>
<clipPath id="clip0_225_737">
<rect width="274" height="247" fill="white"/>
</clipPath>
</defs>
</svg>
